<svg xmlns="http://www.w3.org/2000/svg" width="19" height="19" viewBox="0 0 19 19">
    <g fill="none" fill-rule="evenodd">
        <path fill="#FFF" d="M19 9.5A9.5 9.5 0 0 0 9.5 0 9.5 9.5 0 0 0 0 9.5 9.5 9.5 0 0 0 9.5 19 9.5 9.5 0 0 0 19 9.5z"/>
        <path fill="#000" d="M10.322 6.898c0-.156.007-.278.023-.366a.73.73 0 0 1 .093-.247.396.396 0 0 1 .222-.17c.1-.034.237-.052.407-.052h.921V4h-1.48c-.854 0-1.469.226-1.841.678-.373.453-.56 1.124-.56 2.011V7.93H7v2.063h1.107V16h2.215V9.993h1.48L12 7.93h-1.667l-.011-1.032z"/>
    </g>
</svg>
