<svg xmlns="http://www.w3.org/2000/svg" xmlns:xlink="http://www.w3.org/1999/xlink" width="24" height="24" viewBox="0 0 24 24">
    <defs>
        <path id="a" d="M24 12v12H0V0h24z"/>
    </defs>
    <g fill="none" fill-rule="evenodd">
        <mask id="b" fill="#fff">
            <use xlink:href="#a"/>
        </mask>
        <path fill="#FFF" d="M12 24c6.628 0 12-5.372 12-12 0-6.627-5.372-12-12-12S0 5.373 0 12c0 6.628 5.372 12 12 12" mask="url(#b)"/>
        <path fill="#000" d="M14.88 14.28c-.694.694-1.522 1.04-2.485 1.04-.964 0-1.788-.346-2.472-1.04-.685-.694-1.027-1.517-1.027-2.472 0-.162.018-.388.054-.676H6.6v4.647c0 .505.175.937.527 1.297.35.36.779.54 1.283.54h7.996c.504 0 .933-.18 1.283-.54.352-.36.527-.792.527-1.297v-4.647h-2.377c.054.216.081.442.081.676 0 .955-.346 1.778-1.04 2.472zM8.41 6c-.504 0-.933.175-1.283.527-.352.35-.527.779-.527 1.283v1.972h2.945c.666-.99 1.62-1.486 2.863-1.486 1.207 0 2.161.495 2.863 1.486h2.945V7.81c0-.504-.175-.933-.527-1.283A1.743 1.743 0 0 0 16.406 6H8.41zm8.536 2.567h-.972a.294.294 0 0 1-.23-.11.33.33 0 0 1-.094-.215V7.27c0-.216.108-.324.324-.324h.972c.216 0 .324.108.324.324v.972c0 .216-.108.325-.324.325zm-3.012 1.701a2.106 2.106 0 0 0-1.526-.621c-.594 0-1.103.207-1.526.621a2.05 2.05 0 0 0-.635 1.527c0 .603.211 1.116.635 1.54a2.08 2.08 0 0 0 1.526.634 2.08 2.08 0 0 0 1.526-.635 2.08 2.08 0 0 0 .635-1.526c0-.612-.211-1.126-.635-1.54z" mask="url(#b)"/>
    </g>
</svg>
