<svg xmlns="http://www.w3.org/2000/svg" width="193" height="28" viewBox="0 0 193 28">
    <g fill="none" fill-rule="evenodd">
        <path fill="#FFF" stroke="#000" stroke-opacity=".9" d="M192 14c0-7.18-5.733-13-12.804-13-7.072 0-12.805 5.82-12.805 13s5.733 13 12.805 13C186.267 27 192 21.18 192 14z"/>
        <path fill="#000" d="M179.193 20.496h-5.104c-1.062.025-2.002-.776-2.275-1.939a2.98 2.98 0 0 1-.082-.676c-.006-1.839-.006-3.68-.006-5.52 0-.478.263-.655.64-.432 2.122 1.248 4.24 2.5 6.358 3.753a.83.83 0 0 0 .94 0c2.108-1.247 4.218-2.49 6.33-3.731a.685.685 0 0 1 .196-.085c.29-.06.467.103.467.435v4.781c.018.414.005.828-.038 1.239-.178 1.266-1.15 2.192-2.282 2.173-1.386.014-2.77 0-4.156 0h-.988v.002z"/>
        <path fill="#000" d="M179.174 7.501h5.188c1.016 0 1.767.524 2.227 1.572.152.337.074.557-.221.733a4511.798 4511.798 0 0 0-6.882 4.107.511.511 0 0 1-.57 0l-6.942-4.144c-.25-.15-.304-.337-.192-.63.44-1.077 1.19-1.624 2.22-1.633 1.723-.014 3.447 0 5.177 0l-.005-.005z"/>
        <path fill="#FFF" stroke="#000" d="M26.609 14c0-7.18-5.733-13-12.805-13C6.733 1 1 6.82 1 14s5.733 13 12.804 13c7.072 0 12.805-5.82 12.805-13z"/>
        <path fill="#000" d="M14.856 10.341c0-.21.01-.376.03-.495.02-.118.06-.229.12-.335a.512.512 0 0 1 .283-.23c.129-.047.304-.07.522-.07h1.18V6.416h-1.896c-1.094 0-1.88.305-2.358.918-.477.613-.716 1.522-.716 2.723v1.68h-1.418v2.794h1.418v8.135h2.835v-8.135h1.896l.254-2.793h-2.134l-.016-1.398z"/>
        <g>
            <path fill="#FFF" stroke="#000" d="M67.957 14c0-7.18-5.733-13-12.805-13S42.348 6.82 42.348 14s5.732 13 12.804 13 12.805-5.82 12.805-13z"/>
            <path fill="#000" d="M63.64 16.285v-3.234c-.018-.354-.022-.71-.058-1.061-.068-.668-.117-1.344-.239-2-.2-1.077-.94-1.79-1.849-1.898a32.62 32.62 0 0 0-3.66-.23c-1.444-.01-2.89-.034-4.336-.008-1.083.02-2.166.103-3.248.17-.308.02-.62.052-.921.13-.74.189-1.243.738-1.495 1.599-.188.644-.24 1.325-.287 2.002-.026.392-.038.784-.057 1.175-.003.05-.013.102-.02.153v3.202c.015.308.02.616.05.92.066.68.12 1.364.224 2.035.175 1.149.92 1.921 1.874 2.037 1.217.146 2.437.218 3.659.228 1.446.012 2.892.036 4.337.009 1.117-.022 2.234-.111 3.351-.181.274-.017.551-.048.818-.118.735-.191 1.235-.733 1.49-1.586.19-.633.24-1.304.287-1.97.029-.396.04-.793.06-1.19.003-.061.013-.122.02-.184m-5.029-1.79l-5.138 3.238v-6.497l5.138 3.26"/>
        </g>
        <g>
            <path fill="#FFF" stroke="#4A4A4A" d="M96.5 27c7.072 0 12.804-5.82 12.804-13S103.572 1 96.5 1 83.696 6.82 83.696 14 89.428 27 96.5 27"/>
            <path fill="#000" d="M104.183 9.03a6.378 6.378 0 0 1-1.818.508 3.19 3.19 0 0 0 1.381-1.802 5.985 5.985 0 0 1-1.993.802c-.63-.692-1.399-1.038-2.308-1.038-.873 0-1.62.321-2.237.964-.618.644-.927 1.42-.927 2.332 0 .242.024.49.07.746a8.48 8.48 0 0 1-3.618-1.02A9.173 9.173 0 0 1 89.866 8.1a3.254 3.254 0 0 0-.437 1.64c0 .583.129 1.11.385 1.583.256.474.6.862 1.031 1.165a3.085 3.085 0 0 1-1.416-.419v.037c-.012.802.227 1.5.717 2.094.489.595 1.095.972 1.818 1.129a3.123 3.123 0 0 1-1.416.054c.21.656.582 1.196 1.118 1.621a2.968 2.968 0 0 0 1.836.656c-1.143.934-2.448 1.402-3.916 1.402-.28 0-.536-.013-.769-.037a8.516 8.516 0 0 0 4.843 1.474 8.429 8.429 0 0 0 3.146-.545c.98-.376 1.818-.868 2.517-1.475a9.155 9.155 0 0 0 1.8-2.13 9.837 9.837 0 0 0 1.487-5.171c0-.183-.006-.322-.019-.419a6.485 6.485 0 0 0 1.574-1.694l.018-.036z"/>
        </g>
        <g>
            <path fill="#FFF" stroke="#000" d="M150.652 14c0-7.18-5.732-13-12.804-13s-12.805 5.82-12.805 13 5.733 13 12.805 13 12.804-5.82 12.804-13z"/>
            <path fill="#000" d="M141.083 17.284c-.78.791-1.71 1.187-2.792 1.187-1.082 0-2.008-.396-2.776-1.187-.77-.79-1.154-1.73-1.154-2.819 0-.184.02-.442.06-.77h-2.639v5.298c0 .576.197 1.07.592 1.48.394.41.875.615 1.441.615h8.982c.566 0 1.047-.205 1.44-.615.396-.41.593-.904.593-1.48v-5.298h-2.67c.06.246.091.503.091.77 0 1.09-.39 2.028-1.168 2.82zm-7.268-9.442c-.566 0-1.047.2-1.44.6-.396.4-.593.889-.593 1.464v2.25h3.308c.748-1.13 1.82-1.696 3.216-1.696 1.356 0 2.427.565 3.216 1.695h3.308v-2.25c0-.574-.197-1.063-.592-1.462-.394-.401-.875-.6-1.441-.6h-8.982zm9.589 2.927h-1.092a.328.328 0 0 1-.259-.124.378.378 0 0 1-.105-.247V9.29c0-.246.121-.37.364-.37h1.092c.242 0 .363.124.363.37v1.108c0 .247-.12.371-.363.371zm-3.384 1.94a2.348 2.348 0 0 0-1.714-.708c-.667 0-1.239.236-1.714.709-.476.472-.713 1.052-.713 1.74 0 .689.237 1.273.713 1.756a2.32 2.32 0 0 0 1.714.724 2.32 2.32 0 0 0 1.714-.724 2.391 2.391 0 0 0 .713-1.74c0-.699-.237-1.284-.713-1.756z"/>
        </g>
    </g>
</svg>
