<svg xmlns="http://www.w3.org/2000/svg" width="20" height="20" viewBox="0 0 20 20">
    <g fill="none" fill-rule="evenodd">
        <path fill="#FFF" d="M10 20c5.523 0 10-4.477 10-10S15.523 0 10 0 0 4.477 0 10s4.477 10 10 10"/>
        <path fill="#000" d="M16 6.176a5.04 5.04 0 0 1-1.42.392 2.46 2.46 0 0 0 1.079-1.387c-.483.3-1.002.505-1.557.617C13.611 5.266 13.01 5 12.3 5c-.682 0-1.265.247-1.747.742a2.474 2.474 0 0 0-.724 1.793c0 .186.018.378.055.574a6.7 6.7 0 0 1-2.826-.784 7.138 7.138 0 0 1-2.239-1.863 2.474 2.474 0 0 0-.34 1.26c0 .45.1.855.3 1.219.2.365.468.663.805.896a2.436 2.436 0 0 1-1.106-.322v.028a2.37 2.37 0 0 0 .56 1.61c.382.458.855.748 1.42.869a2.474 2.474 0 0 1-1.106.042c.164.504.454.92.873 1.247a2.34 2.34 0 0 0 1.433.504A4.74 4.74 0 0 1 4.6 13.894c-.218 0-.418-.01-.6-.029A6.723 6.723 0 0 0 7.782 15c.873.01 1.692-.131 2.457-.42a6.571 6.571 0 0 0 1.966-1.135 7.07 7.07 0 0 0 1.406-1.638 7.51 7.51 0 0 0 .873-1.947 7.379 7.379 0 0 0 .288-2.03c0-.141-.005-.248-.015-.323a5.02 5.02 0 0 0 1.23-1.303L16 6.176z"/>
    </g>
</svg>
