<svg xmlns="http://www.w3.org/2000/svg" width="19" height="20" viewBox="0 0 19 20">
    <g fill="none" fill-rule="evenodd">
        <path fill="#000" d="M19 10c0-5.523-4.253-10-9.5-10S0 4.477 0 10s4.253 10 9.5 10S19 15.523 19 10z"/>
        <path fill="#FFF" d="M16.6 11.758V9.27c-.015-.272-.019-.546-.048-.816-.058-.514-.1-1.034-.202-1.538-.168-.83-.79-1.377-1.555-1.46a29.964 29.964 0 0 0-3.077-.177c-1.216-.009-2.432-.026-3.648-.007-.91.015-1.821.08-2.732.131-.259.015-.52.04-.774.1-.623.145-1.045.568-1.257 1.23-.159.496-.203 1.02-.242 1.54-.022.301-.031.603-.048.904-.002.04-.01.078-.017.118v2.463c.013.236.017.474.042.708.056.523.102 1.048.188 1.565.148.883.775 1.478 1.577 1.566 1.024.113 2.05.169 3.077.176 1.216.01 2.432.028 3.648.007.94-.017 1.88-.086 2.819-.14.23-.012.463-.036.688-.09.617-.147 1.038-.564 1.253-1.22.16-.487.202-1.003.241-1.516.024-.304.033-.61.05-.914.003-.048.011-.095.017-.142m-4.23-1.377l-4.321 2.49V7.874l4.322 2.507"/>
    </g>
</svg>
