<svg xmlns="http://www.w3.org/2000/svg" width="22" height="15" viewBox="0 0 22 15">
    <path fill="#FFF" fill-rule="evenodd" d="M.084 13.818l7.098-6.825L.063.903 0 1.302v12.096c0 .084.028.224.084.42zm8.001-7.644l.945.756 1.869 1.533 1.869-1.533.945-.756 7.14-6.111A1.19 1.19 0 0 0 20.475 0H1.302a.905.905 0 0 0-.357.063l7.14 6.111zM1.302 14.7h19.173c.126 0 .245-.021.357-.063L13.671 7.77l-2.772 2.247L8.127 7.77.966 14.637a.951.951 0 0 0 .336.063zm20.412-.882a1.61 1.61 0 0 0 .063-.42V1.302c0-.14-.021-.273-.063-.399l-7.098 6.09 7.098 6.825z"/>
</svg>
