<?xml version="1.0" encoding="utf-8"?>
<!-- Generator: Adobe Illustrator 21.0.0, SVG Export Plug-In . SVG Version: 6.00 Build 0)  -->
<svg version="1.1"
	 id="svg2" xmlns:cc="http://creativecommons.org/ns#" xmlns:dc="http://purl.org/dc/elements/1.1/" xmlns:rdf="http://www.w3.org/1999/02/22-rdf-syntax-ns#" xmlns:svg="http://www.w3.org/2000/svg"
	 xmlns="http://www.w3.org/2000/svg" xmlns:xlink="http://www.w3.org/1999/xlink" x="0px" y="0px" viewBox="0 0 433.1 384.1"
	 style="enable-background:new 0 0 433.1 384.1;" xml:space="preserve">
<style type="text/css">
	.st0{fill:#FFFFFF;}
	.st1{fill:#ED1C24;}
</style>
<g id="g10" transform="matrix(1.3333333,0,0,-1.3333333,0,699.21333)">
	<g id="g12" transform="scale(0.1)">
		<path id="path16" class="st0" d="M285.2,4743.3h245v-441.6h-72.4l-27.8,65.2c-44.6-53.1-80.8-77.2-150.8-77.2
			c-118.2,0-200.3,84.5-200.3,223.2v448.9c0,123.1,72.4,223.2,219.6,223.2c149.6,0,224.5-108.6,224.5-238.9v-55.5H380.6
			c0,130.3-26.5,164.1-85.7,164.1c-36.2,0-66.4-21.7-66.4-95.3v-447.7c0-55.5,18.1-91.7,70-91.7c60.3,0,82.1,33.8,82.1,120.7v84.5
			h-95.3L285.2,4743.3"/>
		<path id="path18" class="st0" d="M682.2,4301.7v871.2h400.6v-130.3h-251v-224.5h193.1v-130.3H831.8V4432h267.9v-130.3
			L682.2,4301.7"/>
		<path id="path20" class="st0" d="M1304.9,5042.6h-144.8v130.3h439.2v-130.3h-144.8v-740.9h-149.6L1304.9,5042.6"/>
		<path id="path22" class="st0" d="M1764.6,5035.3l83.3,149.6h63.9l-59.1-149.6h54.3v-142.4h-142.4V5035.3"/>
		<path id="path24" class="st0" d="M2042.1,4301.7v871.2h400.6v-130.3h-251v-224.5h193.1v-130.3h-193.1V4432h267.9v-130.3
			L2042.1,4301.7"/>
		<path id="path26" class="st0" d="M3177.6,5172.9v-871.2h-130.3v680.5h-2.4l-135.2-680.5h-72.4l-135.1,680.5h-2.4v-680.6h-130.3
			v871.2h196.7l106.2-509.2h2.4l106.2,509.2h196.6"/>
		<path id="path28" class="st1" d="M814.2,2441.3c-49.6,0-96.8,0-145.7,0c0,344.6,0,688.6,0,1035.5c45.5,0,90.7,0.4,135.8-0.7
			c4.4-0.1,10.6-8.6,12.6-14.4c41.4-120.4,82.3-240.9,123.2-361.5c25.7-75.6,51.1-151.3,76.6-227c1.2-3.7,3.1-7.2,9.3-10.5
			c0.5,8,1.4,16.1,1.4,24.1c0,187.4,0,374.8-0.1,562.1c0,27.9,0.1,27.9,28.7,27.9c30.3,0,60.5,0,90.8,0c27.6,0,27.6,0,27.6-28.7
			c0-68.5,0-136.9,0-205.4c0-258,0-516,0-774c0-28.7,0-28.7-29.6-28.7c-25.9,0-51.9,1-77.8-0.4c-15.1-0.8-21.4,5.1-26.4,18.5
			c-47.4,129-95.5,257.7-143.2,386.6c-23.4,63.4-46.3,127-69.6,190.5c-2.6,7.1-6.3,13.7-13.9,19.7
			C814.2,2850.8,814.2,2646.7,814.2,2441.3"/>
		<path id="path30" class="st0" d="M2337.9,2586.8c32.3,0,61.9-1.7,91.2,0.5c27.8,2.1,49.3,17.2,57.8,44.7c5,16.2,8.1,33.7,8.2,50.7
			c0.6,182.9,0.4,365.8,0.3,548.7c0,8.6-0.6,17.3-1.7,25.8c-5.8,44.4-28.4,67.3-72.4,71.7c-19.3,1.9-38.9,0-58.2,1.9
			c-20.4,2-26.7-4.6-26.6-25.8c0.8-231.9,0.5-463.7,0.5-695.6C2336.9,2602.4,2337.5,2595.4,2337.9,2586.8L2337.9,2586.8z
			 M2173.7,2444.1c0,342.6,0,686.2,0,1029.3c2,1.4,3.1,2.9,4.3,2.9c95.8-1,191.8,1.7,287.3-4.4c109.9-6.9,190.7-97,192.1-207.9
			c2.3-186.6,4.3-373.2,3.5-559.8c-0.2-43.9-6.6-89.7-20.2-131.3c-25.6-78.3-87.6-121.9-166.7-127.2
			C2375.1,2439,2275.5,2444.1,2173.7,2444.1"/>
		<path id="path32" class="st1" d="M394.9,2958c0,100.1,0,200.2,0,300.4c0,25.2-4.6,48.8-24,67c-25.5,24-56.3,24.6-87,16
			c-30.2-8.4-44.8-32.6-49.8-62.2c-2.3-13.4-2.6-27.2-2.7-40.9c-0.2-186.6-0.2-373.2,0-559.7c0-13.7,0.4-27.5,2.5-40.9
			c5.9-38.4,28.2-59.9,66.4-65.7c38.9-5.9,71.3,7.9,85.1,39.6c6.3,14.7,8.9,32,9.1,48.1C395.3,2759.2,394.9,2858.6,394.9,2958
			L394.9,2958z M66.9,2959c0,95.1-0.6,190.3,0.2,285.4c0.6,77.7,24.1,146.6,86.8,196.4c67.9,53.9,146.3,65.8,228.6,44.7
			c104.9-26.9,165.7-101,175.9-209.2c2.5-26.5,4-53.1,4-79.7c0.4-169.3,0.6-338.7-0.1-508.1c-0.2-43.2-4.4-86.3-22.2-126.7
			c-36.7-83.6-102.4-127.9-191.7-137.2c-93.8-9.8-176.1,13.2-235.2,92.3c-34.5,46.2-46.1,100.1-46.3,156.7
			C66.7,2768.7,66.9,2863.8,66.9,2959"/>
		<path id="path34" class="st0" d="M1740,3164.1c-46.1,0-90.6-0.5-135.1,0.8c-4.2,0.1-11.2,11.2-11.6,17.5
			c-2.1,34.4-0.5,69.2-4,103.5c-4.6,44.5-33.5,68.3-77.3,67.8c-44.7-0.5-74.5-25.7-78.6-69.7c-6.2-67.4,15.8-126.6,59.4-177.3
			c47.4-55.2,97.4-108,144-163.8c40.2-48.1,77.1-99.3,95.6-160.4c26.6-88.3,26.6-175.5-22.9-256.4
			c-39.6-64.7-101.3-96.8-175.8-102.6c-69.2-5.4-134.9,5.2-190.9,51.6c-49.9,41.3-72.3,96-76.7,158.4c-2.7,37.9-0.5,76.1-0.5,117.7
			c33.1,0,65.2,0,97.3,0c52.2,0,51.5,0,52.5-52.2c0.5-27.9-0.1-56.8,7-83.3c12-44.6,49.4-62.6,101-54.8c37.5,5.7,63.8,37.6,66,79.6
			c3.1,60-13.4,114.6-50,161.6c-34.9,44.8-71.9,88.1-110.3,129.9c-65.9,71.9-126.5,147.4-147.7,244.9c-22.1,101.6-7,196.1,77.5,267
			c61.8,51.9,135.1,60,212.1,44.5c101.7-20.5,161.3-105.4,168.4-201.3C1742.4,3247,1740,3206.6,1740,3164.1"/>
		<path id="path36" class="st0" d="M2932.4,3331.1c-0.4-9.7-1.1-16.7-1.1-23.7c-0.1-80,0.6-160-0.5-239.9
			c-0.3-19.8,6.6-24.3,24.9-23.9c43.2,1.2,86.5-0.1,129.7,0.6c14.1,0.2,19.2-4.6,18.9-18.6c-0.6-33.1-0.8-66.3,0.1-99.4
			c0.4-15.7-6-19.3-20.5-19.1c-49.6,0.7-99.3,0.3-151.5,0.3c-0.4-8.3-1.1-15.1-1.1-22c-0.1-90.8,0.5-181.6-0.5-272.4
			c-0.2-19.9,6.8-24,25-23.8c67.7,0.9,135.5-0.1,203.2,0.7c16.6,0.2,23.1-4.1,22.6-21.7c-1.1-36.7-0.6-73.5-0.2-110.2
			c0.2-12.3-2.9-18.2-16.9-18.1c-129,0.4-258,0.3-386.9,0.4c-2.8,0-5.5,0.8-9.6,1.4c0,344.4,0,688.4,0,1033.9
			c7,0.5,13.3,1.3,19.5,1.3c123.2,0.1,246.4-0.3,369.6,0.5c19,0.1,25.3-5.2,24.4-24.3c-1.5-33.1-1.4-66.3,0-99.4
			c0.7-18.5-6.2-23-23.7-22.8c-67,0.9-134,0.3-201,0.3C2949.8,3331.1,2942.6,3331.1,2932.4,3331.1"/>
		<path id="path38" class="st0" d="M2023.5,2441.3c-50.3,0-99.7,0-152.3,0c0,7.9,0,15.5,0,23.1c0,304.1,0.1,608.1-0.3,912.2
			c0,18,1.5,29,23.5,31.6c28.5,3.3,40.1,26.5,44.5,51.8c2.5,13.9,7.7,17.8,21,17.2c20.6-1,41.4-0.3,63.5-0.3
			C2023.5,3130.5,2023.5,2786.6,2023.5,2441.3"/>
		<path id="path40" class="st0" d="M67.9,3842.9l-0.2,114.9l3108.7,5.7l0.2-114.9L67.9,3842.9"/>
	</g>
</g>
</svg>
