<?xml version="1.0" encoding="UTF-8" standalone="no"?>
<svg
   xmlns:dc="http://purl.org/dc/elements/1.1/"
   xmlns:cc="http://creativecommons.org/ns#"
   xmlns:rdf="http://www.w3.org/1999/02/22-rdf-syntax-ns#"
   xmlns:svg="http://www.w3.org/2000/svg"
   xmlns="http://www.w3.org/2000/svg"
   viewBox="0 0 699.21332 699.21332"
   height="699.21332"
   width="699.21332"
   xml:space="preserve"
   id="svg2"
   version="1.1"><metadata
     id="metadata8"><rdf:RDF><cc:Work
         rdf:about=""><dc:format>image/svg+xml</dc:format><dc:type
           rdf:resource="http://purl.org/dc/dcmitype/StillImage" /></cc:Work></rdf:RDF></metadata><defs
     id="defs6" /><g
     transform="matrix(1.3333333,0,0,-1.3333333,0,699.21333)"
     id="g10"><g
       transform="scale(0.1)"
       id="g12"><path
         id="path14"
         style="fill:#ed1c24;fill-opacity:1;fill-rule:nonzero;stroke:none"
         d="M 0,0 H 5244.09 V 5244.09 H 0 Z" /><path
         id="path16"
         style="fill:#ffffff;fill-opacity:1;fill-rule:nonzero;stroke:none"
         d="m 1274.5,3499.11 h 244.95 v -441.65 h -72.4 l -27.75,65.17 c -44.64,-53.1 -80.84,-77.23 -150.83,-77.23 -118.25,0 -200.31,84.46 -200.31,223.23 v 448.88 c 0,123.08 72.41,223.23 219.61,223.23 149.63,0 224.45,-108.6 224.45,-238.92 v -55.5 h -142.4 c 0,130.32 -26.54,164.1 -85.67,164.1 -36.19,0 -66.36,-21.72 -66.36,-95.32 v -447.67 c 0,-55.51 18.1,-91.71 69.98,-91.71 60.34,0 82.05,33.79 82.05,120.67 v 84.46 h -95.32 v 118.26" /><path
         id="path18"
         style="fill:#ffffff;fill-opacity:1;fill-rule:nonzero;stroke:none"
         d="m 1671.52,3057.46 v 871.22 h 400.61 v -130.32 h -250.98 v -224.45 h 193.07 V 3443.6 h -193.07 v -255.82 h 267.87 v -130.32 h -417.5" /><path
         id="path20"
         style="fill:#ffffff;fill-opacity:1;fill-rule:nonzero;stroke:none"
         d="m 2294.16,3798.36 h -144.79 v 130.32 h 439.22 v -130.32 h -144.8 v -740.9 h -149.63 v 740.9" /><path
         id="path22"
         style="fill:#ffffff;fill-opacity:1;fill-rule:nonzero;stroke:none"
         d="m 2753.9,3791.12 83.26,149.62 h 63.95 l -59.13,-149.62 h 54.31 V 3648.73 H 2753.9 v 142.39" /><path
         id="path24"
         style="fill:#ffffff;fill-opacity:1;fill-rule:nonzero;stroke:none"
         d="m 3031.43,3057.46 v 871.22 h 400.6 v -130.32 h -250.98 v -224.45 h 193.07 V 3443.6 h -193.07 v -255.82 h 267.88 v -130.32 h -417.5" /><path
         id="path26"
         style="fill:#ffffff;fill-opacity:1;fill-rule:nonzero;stroke:none"
         d="m 4166.89,3928.68 v -871.22 h -130.31 v 680.57 h -2.42 l -135.15,-680.57 h -72.39 l -135.15,680.57 h -2.41 v -680.57 h -130.32 v 871.22 h 196.69 l 106.18,-509.22 h 2.41 l 106.2,509.22 h 196.67" /><path
         id="path28"
         style="fill:#231f20;fill-opacity:1;fill-rule:nonzero;stroke:none"
         d="m 1803.51,1197.11 c -49.61,0 -96.79,0 -145.65,0 0,344.58 0,688.61 0,1035.45 45.52,0 90.68,0.41 135.79,-0.66 4.4,-0.09 10.59,-8.62 12.58,-14.4 41.38,-120.4 82.33,-240.95 123.23,-361.52 25.66,-75.62 51.06,-151.33 76.64,-226.98 1.25,-3.69 3.14,-7.15 9.31,-10.48 0.48,8.04 1.38,16.08 1.38,24.12 0.04,187.38 -0.03,374.75 -0.06,562.12 0,27.88 0.06,27.88 28.72,27.88 30.27,0 60.54,0 90.81,0 27.61,0 27.64,0 27.65,-28.69 0.02,-68.46 0.01,-136.93 0.01,-205.4 0,-257.99 0,-516 -0.01,-774.01 0,-28.7 -0.04,-28.71 -29.55,-28.71 -25.95,0 -51.95,1 -77.82,-0.38 -15.08,-0.81 -21.44,5.07 -26.38,18.5 -47.41,129 -95.51,257.74 -143.17,386.64 -23.45,63.4 -46.32,127.03 -69.62,190.48 -2.6,7.08 -6.34,13.74 -13.86,19.7 0,-204.13 0,-408.26 0,-613.66" /><path
         id="path30"
         style="fill:#ffffff;fill-opacity:1;fill-rule:nonzero;stroke:none"
         d="m 3327.23,1342.56 c 32.26,0 61.86,-1.73 91.16,0.5 27.79,2.1 49.28,17.15 57.78,44.73 5,16.22 8.11,33.72 8.16,50.66 0.56,182.9 0.38,365.81 0.29,548.71 -0.01,8.61 -0.56,17.27 -1.67,25.81 -5.78,44.41 -28.4,67.33 -72.42,71.69 -19.27,1.9 -38.92,0.01 -58.2,1.91 -20.42,2.01 -26.69,-4.56 -26.63,-25.77 0.77,-231.87 0.47,-463.74 0.52,-695.62 0,-7.01 0.61,-14.02 1.01,-22.62 z m -164.26,-142.7 c 0,342.58 0,686.21 0,1029.27 1.98,1.4 3.14,2.93 4.29,2.91 95.79,-1.04 191.81,1.66 287.29,-4.35 109.9,-6.92 190.71,-97 192.1,-207.89 2.33,-186.6 4.34,-373.23 3.48,-559.84 -0.21,-43.93 -6.62,-89.68 -20.23,-131.3 -25.56,-78.28 -87.56,-121.89 -166.66,-127.21 -98.85,-6.64 -198.47,-1.59 -300.27,-1.59" /><path
         id="path32"
         style="fill:#231f20;fill-opacity:1;fill-rule:nonzero;stroke:none"
         d="m 1384.2,1713.82 c 0,100.12 -0.01,200.25 0.01,300.39 0.01,25.2 -4.61,48.75 -23.97,66.98 -25.52,24.04 -56.3,24.59 -87.02,16.03 -30.17,-8.41 -44.75,-32.56 -49.77,-62.2 -2.26,-13.4 -2.64,-27.25 -2.66,-40.89 -0.16,-186.57 -0.15,-373.15 0,-559.71 0.01,-13.65 0.44,-27.46 2.51,-40.91 5.92,-38.38 28.17,-59.88 66.39,-65.65 38.88,-5.88 71.35,7.91 85.05,39.63 6.32,14.67 8.94,31.97 9.06,48.1 0.8,99.41 0.4,198.82 0.4,298.23 z m -328.03,0.94 c 0,95.13 -0.57,190.27 0.18,285.39 0.61,77.67 24.12,146.61 86.82,196.42 67.92,53.95 146.32,65.8 228.57,44.7 104.89,-26.91 165.66,-101.03 175.94,-209.16 2.52,-26.47 3.96,-53.14 4.01,-79.72 0.36,-169.35 0.63,-338.72 -0.13,-508.08 -0.2,-43.18 -4.44,-86.34 -22.17,-126.74 -36.72,-83.63 -102.43,-127.9 -191.68,-137.24 -93.77,-9.8 -176.14,13.17 -235.15,92.3 -34.47,46.22 -46.14,100.08 -46.32,156.74 -0.29,95.13 -0.08,190.27 -0.07,285.39" /><path
         id="path34"
         style="fill:#ffffff;fill-opacity:1;fill-rule:nonzero;stroke:none"
         d="m 2729.26,1919.86 c -46.11,0 -90.63,-0.5 -135.1,0.79 -4.2,0.13 -11.21,11.2 -11.6,17.51 -2.09,34.45 -0.51,69.2 -4.02,103.46 -4.55,44.53 -33.5,68.25 -77.28,67.8 -44.66,-0.46 -74.53,-25.66 -78.59,-69.74 -6.22,-67.44 15.83,-126.58 59.38,-177.32 47.35,-55.16 97.44,-108 144.01,-163.78 40.2,-48.14 77.14,-99.27 95.57,-160.44 26.58,-88.26 26.6,-175.49 -22.86,-256.41 -39.57,-64.74 -101.34,-96.78 -175.81,-102.58 -69.19,-5.39 -134.9,5.24 -190.85,51.55 -49.87,41.29 -72.26,96.03 -76.69,158.44 -2.7,37.88 -0.5,76.1 -0.5,117.71 33.09,0 65.21,0 97.34,0 52.18,0 51.48,-0.01 52.47,-52.22 0.52,-27.88 -0.15,-56.82 7,-83.31 12.03,-44.55 49.4,-62.58 100.99,-54.78 37.54,5.67 63.8,37.57 66,79.6 3.13,60.03 -13.39,114.63 -50,161.57 -34.92,44.78 -71.93,88.09 -110.3,129.94 -65.89,71.87 -126.49,147.44 -147.68,244.87 -22.09,101.55 -6.97,196.12 77.52,267.05 61.78,51.87 135.06,59.97 212.14,44.47 101.69,-20.46 161.28,-105.36 168.37,-201.33 2.95,-39.95 0.49,-80.29 0.49,-122.85" /><path
         id="path36"
         style="fill:#ffffff;fill-opacity:1;fill-rule:nonzero;stroke:none"
         d="m 3921.69,2086.86 c -0.45,-9.66 -1.05,-16.7 -1.05,-23.73 -0.07,-79.98 0.59,-159.97 -0.51,-239.93 -0.28,-19.8 6.59,-24.35 24.91,-23.87 43.2,1.16 86.46,-0.08 129.69,0.64 14.15,0.23 19.16,-4.6 18.88,-18.64 -0.65,-33.14 -0.82,-66.31 0.07,-99.43 0.43,-15.72 -5.99,-19.3 -20.52,-19.09 -49.63,0.74 -99.3,0.28 -151.46,0.28 -0.42,-8.27 -1.06,-15.14 -1.06,-22.03 -0.07,-90.78 0.53,-181.58 -0.51,-272.35 -0.24,-19.93 6.8,-24.01 24.98,-23.77 67.72,0.91 135.47,-0.11 203.18,0.69 16.61,0.2 23.12,-4.12 22.56,-21.69 -1.15,-36.71 -0.64,-73.48 -0.2,-110.22 0.16,-12.29 -2.92,-18.17 -16.85,-18.14 -128.98,0.44 -257.95,0.29 -386.92,0.38 -2.76,0 -5.51,0.82 -9.55,1.45 0,344.42 0,688.38 0,1033.87 7.01,0.49 13.26,1.31 19.5,1.31 123.21,0.07 246.43,-0.34 369.64,0.47 18.99,0.11 25.28,-5.16 24.44,-24.33 -1.45,-33.09 -1.36,-66.32 -0.03,-99.41 0.74,-18.54 -6.24,-23.01 -23.66,-22.79 -67,0.85 -134.02,0.34 -201.03,0.33 -7.14,0 -14.29,0 -24.5,0" /><path
         id="path38"
         style="fill:#ffffff;fill-opacity:1;fill-rule:nonzero;stroke:none"
         d="m 3012.81,1197.12 c -50.29,0 -99.67,0 -152.25,0 0,7.88 0,15.49 0,23.09 0,304.08 0.12,608.14 -0.33,912.21 -0.02,18.04 1.46,28.99 23.54,31.57 28.53,3.33 40.06,26.5 44.53,51.76 2.46,13.87 7.68,17.84 21.03,17.17 20.65,-1.04 41.39,-0.28 63.48,-0.28 0,-346.34 0,-690.29 0,-1035.52" /><path
         id="path40"
         style="fill:#ffffff;fill-opacity:1;fill-rule:nonzero;stroke:none"
         d="m 1057.22,2598.74 -0.21,114.93 3108.72,5.74 0.21,-114.92 -3108.72,-5.75" /></g></g></svg>